# Aspose.3D Wavefront OBJ Exporter
# Copyright 2004-2024 Aspose Pty Ltd.
# File created: 12/02/2024 15:14:19

mtllib material.lib
g cube

#
# object cube
#

v 0.3125 0.25 0.5
v 0.3125 0.25 -0.5625
v 0.3125 0.125 0.5
v 0.3125 0.125 -0.5625
v -0.3125 0.25 -0.5625
v -0.3125 0.25 0.5
v -0.3125 0.125 -0.5625
v -0.3125 0.125 0.5
v -0.3125 0.25 -0.5625
v 0.3125 0.25 -0.5625
v -0.3125 0.25 0.5
v 0.3125 0.25 0.5
v -0.3125 0.125 0.5
v 0.3125 0.125 0.5
v -0.3125 0.125 -0.5625
v 0.3125 0.125 -0.5625
v -0.3125 0.25 0.5
v 0.3125 0.25 0.5
v -0.3125 0.125 0.5
v 0.3125 0.125 0.5
v 0.3125 0.25 -0.5625
v -0.3125 0.25 -0.5625
v 0.3125 0.125 -0.5625
v -0.3125 0.125 -0.5625
# 24 vertices

vn 1 0 0
vn 1 0 0
vn 1 0 0
vn 1 0 0
vn -1 0 0
vn -1 0 0
vn -1 0 0
vn -1 0 0
vn 0 1 0
vn 0 1 0
vn 0 1 0
vn 0 1 0
vn 0 -1 0
vn 0 -1 0
vn 0 -1 0
vn 0 -1 0
vn 0 0 1
vn 0 0 1
vn 0 0 1
vn 0 0 1
vn 0 0 -1
vn 0 0 -1
vn 0 0 -1
vn 0 0 -1
# 24 vertex normals

vt 0.09375 -0.609375 0
vt 0.359375 -0.609375 0
vt 0.09375 -0.640625 0
vt 0.359375 -0.640625 0
vt 0.09375 -0.640625 0
vt 0.359375 -0.640625 0
vt 0.09375 -0.671875 0
vt 0.359375 -0.671875 0
vt 0.15625 -0.265625 0
vt 0 -0.265625 0
vt 0.15625 -0 0
vt 0 -0 0
vt 0.3125 -0 0
vt 0.15625 -0 0
vt 0.3125 -0.265625 0
vt 0.15625 -0.265625 0
vt 0.609375 -0.65625 0
vt 0.765625 -0.65625 0
vt 0.609375 -0.6875 0
vt 0.765625 -0.6875 0
vt 0.09375 -0.578125 0
vt 0.25 -0.578125 0
vt 0.09375 -0.609375 0
vt 0.25 -0.609375 0
# 24 texture coords

usemtl mat_23545597
s 1
f 1/1/1 3/3/3 2/2/2
f 3/3/3 4/4/4 2/2/2
f 5/5/5 7/7/7 6/6/6
f 7/7/7 8/8/8 6/6/6
f 9/9/9 11/11/11 10/10/10
f 11/11/11 12/12/12 10/10/10
f 13/13/13 15/15/15 14/14/14
f 15/15/15 16/16/16 14/14/14
f 17/17/17 19/19/19 18/18/18
f 19/19/19 20/20/20 18/18/18
f 21/21/21 23/23/23 22/22/22
f 23/23/23 24/24/24 22/22/22
#12 polygons

g cube

#
# object cube
#

v 0.25625 0.31875 0.38125
v 0.25625 0.31875 -0.13125
v 0.25625 0.24375 0.38125
v 0.25625 0.24375 -0.13125
v -0.25625 0.31875 -0.13125
v -0.25625 0.31875 0.38125
v -0.25625 0.24375 -0.13125
v -0.25625 0.24375 0.38125
v -0.25625 0.31875 -0.13125
v 0.25625 0.31875 -0.13125
v -0.25625 0.31875 0.38125
v 0.25625 0.31875 0.38125
v -0.25625 0.24375 0.38125
v 0.25625 0.24375 0.38125
v -0.25625 0.24375 -0.13125
v 0.25625 0.24375 -0.13125
v -0.25625 0.31875 0.38125
v 0.25625 0.31875 0.38125
v -0.25625 0.24375 0.38125
v 0.25625 0.24375 0.38125
v 0.25625 0.31875 -0.13125
v -0.25625 0.31875 -0.13125
v 0.25625 0.24375 -0.13125
v -0.25625 0.24375 -0.13125
# 24 vertices

vn 1 0 0
vn 1 0 0
vn 1 0 0
vn 1 0 0
vn -1 0 0
vn -1 0 0
vn -1 0 0
vn -1 0 0
vn 0 1 0
vn 0 1 0
vn 0 1 0
vn 0 1 0
vn 0 -1 0
vn 0 -1 0
vn 0 -1 0
vn 0 -1 0
vn 0 0 1
vn 0 0 1
vn 0 0 1
vn 0 0 1
vn 0 0 -1
vn 0 0 -1
vn 0 0 -1
vn 0 0 -1
# 24 vertex normals

vt 0.75 -0.140625 0
vt 0.875 -0.140625 0
vt 0.75 -0.15625 0
vt 0.875 -0.15625 0
vt 0.765625 -0.375 0
vt 0.890625 -0.375 0
vt 0.765625 -0.390625 0
vt 0.890625 -0.390625 0
vt 0.4375 -0.265625 0
vt 0.3125 -0.265625 0
vt 0.4375 -0.140625 0
vt 0.3125 -0.140625 0
vt 0.5 -0.265625 0
vt 0.375 -0.265625 0
vt 0.5 -0.390625 0
vt 0.375 -0.390625 0
vt 0.765625 -0.359375 0
vt 0.890625 -0.359375 0
vt 0.765625 -0.375 0
vt 0.890625 -0.375 0
vt 0.65625 -0.640625 0
vt 0.78125 -0.640625 0
vt 0.65625 -0.65625 0
vt 0.78125 -0.65625 0
# 24 texture coords

usemtl mat_20927255
s 2
f 25/25/25 27/27/27 26/26/26
f 27/27/27 28/28/28 26/26/26
f 29/29/29 31/31/31 30/30/30
f 31/31/31 32/32/32 30/30/30
f 33/33/33 35/35/35 34/34/34
f 35/35/35 36/36/36 34/34/34
f 37/37/37 39/39/39 38/38/38
f 39/39/39 40/40/40 38/38/38
f 41/41/41 43/43/43 42/42/42
f 43/43/43 44/44/44 42/42/42
f 45/45/45 47/47/47 46/46/46
f 47/47/47 48/48/48 46/46/46
#12 polygons

g cube

#
# object cube
#

v 0.25625 0.63125 0.38125
v 0.25625 0.63125 0.24375
v 0.25625 0.30625 0.38125
v 0.25625 0.30625 0.24375
v -0.25625 0.63125 0.24375
v -0.25625 0.63125 0.38125
v -0.25625 0.30625 0.24375
v -0.25625 0.30625 0.38125
v -0.25625 0.63125 0.24375
v 0.25625 0.63125 0.24375
v -0.25625 0.63125 0.38125
v 0.25625 0.63125 0.38125
v -0.25625 0.30625 0.38125
v 0.25625 0.30625 0.38125
v -0.25625 0.30625 0.24375
v 0.25625 0.30625 0.24375
v -0.25625 0.63125 0.38125
v 0.25625 0.63125 0.38125
v -0.25625 0.30625 0.38125
v 0.25625 0.30625 0.38125
v 0.25625 0.63125 0.24375
v -0.25625 0.63125 0.24375
v 0.25625 0.30625 0.24375
v -0.25625 0.30625 0.24375
# 24 vertices

vn 1 0 0
vn 1 0 0
vn 1 0 0
vn 1 0 0
vn -1 0 0
vn -1 0 0
vn -1 0 0
vn -1 0 0
vn 0 1 0
vn 0 1 0
vn 0 1 0
vn 0 1 0
vn 0 -1 0
vn 0 -1 0
vn 0 -1 0
vn 0 -1 0
vn 0 0 1
vn 0 0 1
vn 0 0 1
vn 0 0 1
vn 0 0 -1
vn 0 0 -1
vn 0 0 -1
vn 0 0 -1
# 24 vertex normals

vt 0.46875 -0.75 0
vt 0.5 -0.75 0
vt 0.46875 -0.828125 0
vt 0.5 -0.828125 0
vt 0 -0.765625 0
vt 0.03125 -0.765625 0
vt 0 -0.84375 0
vt 0.03125 -0.84375 0
vt 0.875 -0.140625 0
vt 0.75 -0.140625 0
vt 0.875 -0.109375 0
vt 0.75 -0.109375 0
vt 0.875 -0.296875 0
vt 0.75 -0.296875 0
vt 0.875 -0.328125 0
vt 0.75 -0.328125 0
vt 0.25 -0.53125 0
vt 0.375 -0.53125 0
vt 0.25 -0.609375 0
vt 0.375 -0.609375 0
vt 0.375 -0.515625 0
vt 0.5 -0.515625 0
vt 0.375 -0.59375 0
vt 0.5 -0.59375 0
# 24 texture coords

usemtl mat_21462311
s 4
f 49/49/49 51/51/51 50/50/50
f 51/51/51 52/52/52 50/50/50
f 53/53/53 55/55/55 54/54/54
f 55/55/55 56/56/56 54/54/54
f 57/57/57 59/59/59 58/58/58
f 59/59/59 60/60/60 58/58/58
f 61/61/61 63/63/63 62/62/62
f 63/63/63 64/64/64 62/62/62
f 65/65/65 67/67/67 66/66/66
f 67/67/67 68/68/68 66/66/66
f 69/69/69 71/71/71 70/70/70
f 71/71/71 72/72/72 70/70/70
#12 polygons

g cube

#
# object cube
#

v 0.25 0.64854276 -0.27906266
v 0.25 0.7126716 -0.45525503
v 0.25 0.11996569 -0.471449
v 0.25 0.18409446 -0.64764136
v -0.25 0.7126716 -0.45525503
v -0.25 0.64854276 -0.27906266
v -0.25 0.18409446 -0.64764136
v -0.25 0.11996569 -0.471449
v -0.25 0.7126716 -0.45525503
v 0.25 0.7126716 -0.45525503
v -0.25 0.64854276 -0.27906266
v 0.25 0.64854276 -0.27906266
v -0.25 0.11996569 -0.471449
v 0.25 0.11996569 -0.471449
v -0.25 0.18409446 -0.64764136
v 0.25 0.18409446 -0.64764136
v -0.25 0.64854276 -0.27906266
v 0.25 0.64854276 -0.27906266
v -0.25 0.11996569 -0.471449
v 0.25 0.11996569 -0.471449
v 0.25 0.7126716 -0.45525503
v -0.25 0.7126716 -0.45525503
v 0.25 0.18409446 -0.64764136
v -0.25 0.18409446 -0.64764136
# 24 vertices

vn 1 0 0
vn 1 0 0
vn 1 0 0
vn 1 0 0
vn -1 0 0
vn -1 0 0
vn -1 0 0
vn -1 0 0
vn 0 0.9396926 0.34202015
vn 0 0.9396926 0.34202015
vn 0 0.9396926 0.34202015
vn 0 0.9396926 0.34202015
vn 0 -0.9396926 -0.34202015
vn 0 -0.9396926 -0.34202015
vn 0 -0.9396926 -0.34202015
vn 0 -0.9396926 -0.34202015
vn 0 -0.34202015 0.9396926
vn 0 -0.34202015 0.9396926
vn 0 -0.34202015 0.9396926
vn 0 -0.34202015 0.9396926
vn 0 0.34202015 -0.9396926
vn 0 0.34202015 -0.9396926
vn 0 0.34202015 -0.9396926
vn 0 0.34202015 -0.9396926
# 24 vertex normals

vt 0.5 -0.625 0
vt 0.546875 -0.625 0
vt 0.5 -0.765625 0
vt 0.546875 -0.765625 0
vt 0.65625 -0.0625 0
vt 0.703125 -0.0625 0
vt 0.65625 -0.203125 0
vt 0.703125 -0.203125 0
vt 0.78125 -0.25 0
vt 0.65625 -0.25 0
vt 0.78125 -0.203125 0
vt 0.65625 -0.203125 0
vt 0.78125 -0.25 0
vt 0.65625 -0.25 0
vt 0.78125 -0.296875 0
vt 0.65625 -0.296875 0
vt 0.3125 -0 0
vt 0.4375 -0 0
vt 0.3125 -0.140625 0
vt 0.4375 -0.140625 0
vt 0.25 -0.265625 0
vt 0.375 -0.265625 0
vt 0.25 -0.40625 0
vt 0.375 -0.40625 0
# 24 texture coords

usemtl mat_21415247
s 8
f 73/73/73 75/75/75 74/74/74
f 75/75/75 76/76/76 74/74/74
f 77/77/77 79/79/79 78/78/78
f 79/79/79 80/80/80 78/78/78
f 81/81/81 83/83/83 82/82/82
f 83/83/83 84/84/84 82/82/82
f 85/85/85 87/87/87 86/86/86
f 87/87/87 88/88/88 86/86/86
f 89/89/89 91/91/91 90/90/90
f 91/91/91 92/92/92 90/90/90
f 93/93/93 95/95/95 94/94/94
f 95/95/95 96/96/96 94/94/94
#12 polygons

g cube

#
# object cube
#

v -0.25 0.375 0.6875
v -0.25 0.375 0.3125
v -0.25 0 0.6875
v -0.25 0 0.3125
v -0.4375 0.375 0.3125
v -0.4375 0.375 0.6875
v -0.4375 0 0.3125
v -0.4375 0 0.6875
v -0.4375 0.375 0.3125
v -0.25 0.375 0.3125
v -0.4375 0.375 0.6875
v -0.25 0.375 0.6875
v -0.4375 0 0.6875
v -0.25 0 0.6875
v -0.4375 0 0.3125
v -0.25 0 0.3125
v -0.4375 0.375 0.6875
v -0.25 0.375 0.6875
v -0.4375 0 0.6875
v -0.25 0 0.6875
v -0.25 0.375 0.3125
v -0.4375 0.375 0.3125
v -0.25 0 0.3125
v -0.4375 0 0.3125
# 24 vertices

vn 1 0 0
vn 1 0 0
vn 1 0 0
vn 1 0 0
vn -1 0 0
vn -1 0 0
vn -1 0 0
vn -1 0 0
vn 0 1 0
vn 0 1 0
vn 0 1 0
vn 0 1 0
vn 0 -1 0
vn 0 -1 0
vn 0 -1 0
vn 0 -1 0
vn 0 0 1
vn 0 0 1
vn 0 0 1
vn 0 0 1
vn 0 0 -1
vn 0 0 -1
vn 0 0 -1
vn 0 0 -1
# 24 vertex normals

vt 0.5625 -0 0
vt 0.65625 -0 0
vt 0.5625 -0.09375 0
vt 0.65625 -0.09375 0
vt 0.5625 -0.09375 0
vt 0.65625 -0.09375 0
vt 0.5625 -0.1875 0
vt 0.65625 -0.1875 0
vt 0.09375 -0.765625 0
vt 0.046875 -0.765625 0
vt 0.09375 -0.671875 0
vt 0.046875 -0.671875 0
vt 0.140625 -0.671875 0
vt 0.09375 -0.671875 0
vt 0.140625 -0.765625 0
vt 0.09375 -0.765625 0
vt 0 -0.671875 0
vt 0.046875 -0.671875 0
vt 0 -0.765625 0
vt 0.046875 -0.765625 0
vt 0.453125 -0.65625 0
vt 0.5 -0.65625 0
vt 0.453125 -0.75 0
vt 0.5 -0.75 0
# 24 texture coords

usemtl mat_17692062
s 16
f 97/97/97 99/99/99 98/98/98
f 99/99/99 100/100/100 98/98/98
f 101/101/101 103/103/103 102/102/102
f 103/103/103 104/104/104 102/102/102
f 105/105/105 107/107/107 106/106/106
f 107/107/107 108/108/108 106/106/106
f 109/109/109 111/111/111 110/110/110
f 111/111/111 112/112/112 110/110/110
f 113/113/113 115/115/115 114/114/114
f 115/115/115 116/116/116 114/114/114
f 117/117/117 119/119/119 118/118/118
f 119/119/119 120/120/120 118/118/118
#12 polygons

g cube

#
# object cube
#

v -0.25 0.375 -0.25
v -0.25 0.375 -0.625
v -0.25 0 -0.25
v -0.25 0 -0.625
v -0.4375 0.375 -0.625
v -0.4375 0.375 -0.25
v -0.4375 0 -0.625
v -0.4375 0 -0.25
v -0.4375 0.375 -0.625
v -0.25 0.375 -0.625
v -0.4375 0.375 -0.25
v -0.25 0.375 -0.25
v -0.4375 0 -0.25
v -0.25 0 -0.25
v -0.4375 0 -0.625
v -0.25 0 -0.625
v -0.4375 0.375 -0.25
v -0.25 0.375 -0.25
v -0.4375 0 -0.25
v -0.25 0 -0.25
v -0.25 0.375 -0.625
v -0.4375 0.375 -0.625
v -0.25 0 -0.625
v -0.4375 0 -0.625
# 24 vertices

vn 1 0 0
vn 1 0 0
vn 1 0 0
vn 1 0 0
vn -1 0 0
vn -1 0 0
vn -1 0 0
vn -1 0 0
vn 0 1 0
vn 0 1 0
vn 0 1 0
vn 0 1 0
vn 0 -1 0
vn 0 -1 0
vn 0 -1 0
vn 0 -1 0
vn 0 0 1
vn 0 0 1
vn 0 0 1
vn 0 0 1
vn 0 0 -1
vn 0 0 -1
vn 0 0 -1
vn 0 0 -1
# 24 vertex normals

vt 0.5625 -0.1875 0
vt 0.65625 -0.1875 0
vt 0.5625 -0.28125 0
vt 0.65625 -0.28125 0
vt 0.5625 -0.28125 0
vt 0.65625 -0.28125 0
vt 0.5625 -0.375 0
vt 0.65625 -0.375 0
vt 0.28125 -0.765625 0
vt 0.234375 -0.765625 0
vt 0.28125 -0.671875 0
vt 0.234375 -0.671875 0
vt 0.328125 -0.671875 0
vt 0.28125 -0.671875 0
vt 0.328125 -0.765625 0
vt 0.28125 -0.765625 0
vt 0.1875 -0.671875 0
vt 0.234375 -0.671875 0
vt 0.1875 -0.765625 0
vt 0.234375 -0.765625 0
vt 0.140625 -0.671875 0
vt 0.1875 -0.671875 0
vt 0.140625 -0.765625 0
vt 0.1875 -0.765625 0
# 24 texture coords

usemtl mat_51443236
s 32
f 121/121/121 123/123/123 122/122/122
f 123/123/123 124/124/124 122/122/122
f 125/125/125 127/127/127 126/126/126
f 127/127/127 128/128/128 126/126/126
f 129/129/129 131/131/131 130/130/130
f 131/131/131 132/132/132 130/130/130
f 133/133/133 135/135/135 134/134/134
f 135/135/135 136/136/136 134/134/134
f 137/137/137 139/139/139 138/138/138
f 139/139/139 140/140/140 138/138/138
f 141/141/141 143/143/143 142/142/142
f 143/143/143 144/144/144 142/142/142
#12 polygons

g cube

#
# object cube
#

v 0.4375 0.375 0.6875
v 0.4375 0.375 0.3125
v 0.4375 0 0.6875
v 0.4375 0 0.3125
v 0.25 0.375 0.3125
v 0.25 0.375 0.6875
v 0.25 0 0.3125
v 0.25 0 0.6875
v 0.25 0.375 0.3125
v 0.4375 0.375 0.3125
v 0.25 0.375 0.6875
v 0.4375 0.375 0.6875
v 0.25 0 0.6875
v 0.4375 0 0.6875
v 0.25 0 0.3125
v 0.4375 0 0.3125
v 0.25 0.375 0.6875
v 0.4375 0.375 0.6875
v 0.25 0 0.6875
v 0.4375 0 0.6875
v 0.4375 0.375 0.3125
v 0.25 0.375 0.3125
v 0.4375 0 0.3125
v 0.25 0 0.3125
# 24 vertices

vn 1 0 0
vn 1 0 0
vn 1 0 0
vn 1 0 0
vn -1 0 0
vn -1 0 0
vn -1 0 0
vn -1 0 0
vn 0 1 0
vn 0 1 0
vn 0 1 0
vn 0 1 0
vn 0 -1 0
vn 0 -1 0
vn 0 -1 0
vn 0 -1 0
vn 0 0 1
vn 0 0 1
vn 0 0 1
vn 0 0 1
vn 0 0 -1
vn 0 0 -1
vn 0 0 -1
vn 0 0 -1
# 24 vertex normals

vt 0.5625 -0.375 0
vt 0.65625 -0.375 0
vt 0.5625 -0.46875 0
vt 0.65625 -0.46875 0
vt 0.5625 -0.46875 0
vt 0.65625 -0.46875 0
vt 0.5625 -0.5625 0
vt 0.65625 -0.5625 0
vt 0.75 -0.15625 0
vt 0.703125 -0.15625 0
vt 0.75 -0.0625 0
vt 0.703125 -0.0625 0
vt 0.75 -0.6875 0
vt 0.703125 -0.6875 0
vt 0.75 -0.78125 0
vt 0.703125 -0.78125 0
vt 0.65625 -0.6875 0
vt 0.703125 -0.6875 0
vt 0.65625 -0.78125 0
vt 0.703125 -0.78125 0
vt 0.609375 -0.6875 0
vt 0.65625 -0.6875 0
vt 0.609375 -0.78125 0
vt 0.65625 -0.78125 0
# 24 texture coords

usemtl mat_45550834
s 64
f 145/145/145 147/147/147 146/146/146
f 147/147/147 148/148/148 146/146/146
f 149/149/149 151/151/151 150/150/150
f 151/151/151 152/152/152 150/150/150
f 153/153/153 155/155/155 154/154/154
f 155/155/155 156/156/156 154/154/154
f 157/157/157 159/159/159 158/158/158
f 159/159/159 160/160/160 158/158/158
f 161/161/161 163/163/163 162/162/162
f 163/163/163 164/164/164 162/162/162
f 165/165/165 167/167/167 166/166/166
f 167/167/167 168/168/168 166/166/166
#12 polygons

g cube

#
# object cube
#

v 0.4375 0.375 -0.25
v 0.4375 0.375 -0.625
v 0.4375 0 -0.25
v 0.4375 0 -0.625
v 0.25 0.375 -0.625
v 0.25 0.375 -0.25
v 0.25 0 -0.625
v 0.25 0 -0.25
v 0.25 0.375 -0.625
v 0.4375 0.375 -0.625
v 0.25 0.375 -0.25
v 0.4375 0.375 -0.25
v 0.25 0 -0.25
v 0.4375 0 -0.25
v 0.25 0 -0.625
v 0.4375 0 -0.625
v 0.25 0.375 -0.25
v 0.4375 0.375 -0.25
v 0.25 0 -0.25
v 0.4375 0 -0.25
v 0.4375 0.375 -0.625
v 0.25 0.375 -0.625
v 0.4375 0 -0.625
v 0.25 0 -0.625
# 24 vertices

vn 1 0 0
vn 1 0 0
vn 1 0 0
vn 1 0 0
vn -1 0 0
vn -1 0 0
vn -1 0 0
vn -1 0 0
vn 0 1 0
vn 0 1 0
vn 0 1 0
vn 0 1 0
vn 0 -1 0
vn 0 -1 0
vn 0 -1 0
vn 0 -1 0
vn 0 0 1
vn 0 0 1
vn 0 0 1
vn 0 0 1
vn 0 0 -1
vn 0 0 -1
vn 0 0 -1
vn 0 0 -1
# 24 vertex normals

vt 0.5625 -0.5625 0
vt 0.65625 -0.5625 0
vt 0.5625 -0.65625 0
vt 0.65625 -0.65625 0
vt 0 -0.578125 0
vt 0.09375 -0.578125 0
vt 0 -0.671875 0
vt 0.09375 -0.671875 0
vt 0.421875 -0.8125 0
vt 0.375 -0.8125 0
vt 0.421875 -0.71875 0
vt 0.375 -0.71875 0
vt 0.765625 -0.453125 0
vt 0.71875 -0.453125 0
vt 0.765625 -0.546875 0
vt 0.71875 -0.546875 0
vt 0.71875 -0.359375 0
vt 0.765625 -0.359375 0
vt 0.71875 -0.453125 0
vt 0.765625 -0.453125 0
vt 0.328125 -0.71875 0
vt 0.375 -0.71875 0
vt 0.328125 -0.8125 0
vt 0.375 -0.8125 0
# 24 texture coords

usemtl mat_35855896
s 128
f 169/169/169 171/171/171 170/170/170
f 171/171/171 172/172/172 170/170/170
f 173/173/173 175/175/175 174/174/174
f 175/175/175 176/176/176 174/174/174
f 177/177/177 179/179/179 178/178/178
f 179/179/179 180/180/180 178/178/178
f 181/181/181 183/183/183 182/182/182
f 183/183/183 184/184/184 182/182/182
f 185/185/185 187/187/187 186/186/186
f 187/187/187 188/188/188 186/186/186
f 189/189/189 191/191/191 190/190/190
f 191/191/191 192/192/192 190/190/190
#12 polygons

g cube

#
# object cube
#

v 0.1875 0.75 -0.25
v 0.1875 0.75 -0.375
v 0.1875 0.5 -0.25
v 0.1875 0.5 -0.375
v -0.1875 0.75 -0.375
v -0.1875 0.75 -0.25
v -0.1875 0.5 -0.375
v -0.1875 0.5 -0.25
v -0.1875 0.75 -0.375
v 0.1875 0.75 -0.375
v -0.1875 0.75 -0.25
v 0.1875 0.75 -0.25
v -0.1875 0.5 -0.25
v 0.1875 0.5 -0.25
v -0.1875 0.5 -0.375
v 0.1875 0.5 -0.375
v -0.1875 0.75 -0.25
v 0.1875 0.75 -0.25
v -0.1875 0.5 -0.25
v 0.1875 0.5 -0.25
v 0.1875 0.75 -0.375
v -0.1875 0.75 -0.375
v 0.1875 0.5 -0.375
v -0.1875 0.5 -0.375
# 24 vertices

vn 1 0 0
vn 1 0 0
vn 1 0 0
vn 1 0 0
vn -1 0 0
vn -1 0 0
vn -1 0 0
vn -1 0 0
vn 0 1 0
vn 0 1 0
vn 0 1 0
vn 0 1 0
vn 0 -1 0
vn 0 -1 0
vn 0 -1 0
vn 0 -1 0
vn 0 0 1
vn 0 0 1
vn 0 0 1
vn 0 0 1
vn 0 0 -1
vn 0 0 -1
vn 0 0 -1
vn 0 0 -1
# 24 vertex normals

vt 0.21875 -0.765625 0
vt 0.25 -0.765625 0
vt 0.21875 -0.828125 0
vt 0.25 -0.828125 0
vt 0.25 -0.765625 0
vt 0.28125 -0.765625 0
vt 0.25 -0.828125 0
vt 0.28125 -0.828125 0
vt 0.84375 -0.359375 0
vt 0.75 -0.359375 0
vt 0.84375 -0.328125 0
vt 0.75 -0.328125 0
vt 0.84375 -0.75 0
vt 0.75 -0.75 0
vt 0.84375 -0.78125 0
vt 0.75 -0.78125 0
vt 0.359375 -0.65625 0
vt 0.453125 -0.65625 0
vt 0.359375 -0.71875 0
vt 0.453125 -0.71875 0
vt 0.65625 -0.296875 0
vt 0.75 -0.296875 0
vt 0.65625 -0.359375 0
vt 0.75 -0.359375 0
# 24 texture coords

usemtl mat_7596965
s 256
f 193/193/193 195/195/195 194/194/194
f 195/195/195 196/196/196 194/194/194
f 197/197/197 199/199/199 198/198/198
f 199/199/199 200/200/200 198/198/198
f 201/201/201 203/203/203 202/202/202
f 203/203/203 204/204/204 202/202/202
f 205/205/205 207/207/207 206/206/206
f 207/207/207 208/208/208 206/206/206
f 209/209/209 211/211/211 210/210/210
f 211/211/211 212/212/212 210/210/210
f 213/213/213 215/215/215 214/214/214
f 215/215/215 216/216/216 214/214/214
#12 polygons

g cube

#
# object cube
#

v -0.125 0.41418535 0.7228529
v -0.125 0.365238 0.35106105
v -0.125 0.22828944 0.7473265
v -0.125 0.1793421 0.37553468
v -0.3125 0.365238 0.35106105
v -0.3125 0.41418535 0.7228529
v -0.3125 0.1793421 0.37553468
v -0.3125 0.22828944 0.7473265
v -0.3125 0.365238 0.35106105
v -0.125 0.365238 0.35106105
v -0.3125 0.41418535 0.7228529
v -0.125 0.41418535 0.7228529
v -0.3125 0.22828944 0.7473265
v -0.125 0.22828944 0.7473265
v -0.3125 0.1793421 0.37553468
v -0.125 0.1793421 0.37553468
v -0.3125 0.41418535 0.7228529
v -0.125 0.41418535 0.7228529
v -0.3125 0.22828944 0.7473265
v -0.125 0.22828944 0.7473265
v -0.125 0.365238 0.35106105
v -0.3125 0.365238 0.35106105
v -0.125 0.1793421 0.37553468
v -0.3125 0.1793421 0.37553468
# 24 vertices

vn 1 0 0
vn 1 0 0
vn 1 0 0
vn 1 0 0
vn -1 0 0
vn -1 0 0
vn -1 0 0
vn -1 0 0
vn 0 0.9914449 -0.13052619
vn 0 0.9914449 -0.13052619
vn 0 0.9914449 -0.13052619
vn 0 0.9914449 -0.13052619
vn 0 -0.9914449 0.13052619
vn 0 -0.9914449 0.13052619
vn 0 -0.9914449 0.13052619
vn 0 -0.9914449 0.13052619
vn 0 0.13052619 0.9914449
vn 0 0.13052619 0.9914449
vn 0 0.13052619 0.9914449
vn 0 0.13052619 0.9914449
vn 0 -0.13052619 -0.9914449
vn 0 -0.13052619 -0.9914449
vn 0 -0.13052619 -0.9914449
vn 0 -0.13052619 -0.9914449
# 24 vertex normals

vt 0.703125 -0.15625 0
vt 0.796875 -0.15625 0
vt 0.703125 -0.203125 0
vt 0.796875 -0.203125 0
vt 0.703125 -0.15625 0
vt 0.796875 -0.15625 0
vt 0.703125 -0.203125 0
vt 0.796875 -0.203125 0
vt 0.765625 -0.640625 0
vt 0.71875 -0.640625 0
vt 0.765625 -0.546875 0
vt 0.71875 -0.546875 0
vt 0.765625 -0.546875 0
vt 0.71875 -0.546875 0
vt 0.765625 -0.640625 0
vt 0.71875 -0.640625 0
vt 0.078125 -0.765625 0
vt 0.125 -0.765625 0
vt 0.078125 -0.8125 0
vt 0.125 -0.8125 0
vt 0.03125 -0.765625 0
vt 0.078125 -0.765625 0
vt 0.03125 -0.8125 0
vt 0.078125 -0.8125 0
# 24 texture coords

usemtl mat_24925609
s 512
f 217/217/217 219/219/219 218/218/218
f 219/219/219 220/220/220 218/218/218
f 221/221/221 223/223/223 222/222/222
f 223/223/223 224/224/224 222/222/222
f 225/225/225 227/227/227 226/226/226
f 227/227/227 228/228/228 226/226/226
f 229/229/229 231/231/231 230/230/230
f 231/231/231 232/232/232 230/230/230
f 233/233/233 235/235/235 234/234/234
f 235/235/235 236/236/236 234/234/234
f 237/237/237 239/239/239 238/238/238
f 239/239/239 240/240/240 238/238/238
#12 polygons

g cube

#
# object cube
#

v 0.3125 0.41418535 0.7228529
v 0.3125 0.365238 0.35106105
v 0.3125 0.22828944 0.7473265
v 0.3125 0.1793421 0.37553468
v 0.125 0.365238 0.35106105
v 0.125 0.41418535 0.7228529
v 0.125 0.1793421 0.37553468
v 0.125 0.22828944 0.7473265
v 0.125 0.365238 0.35106105
v 0.3125 0.365238 0.35106105
v 0.125 0.41418535 0.7228529
v 0.3125 0.41418535 0.7228529
v 0.125 0.22828944 0.7473265
v 0.3125 0.22828944 0.7473265
v 0.125 0.1793421 0.37553468
v 0.3125 0.1793421 0.37553468
v 0.125 0.41418535 0.7228529
v 0.3125 0.41418535 0.7228529
v 0.125 0.22828944 0.7473265
v 0.3125 0.22828944 0.7473265
v 0.3125 0.365238 0.35106105
v 0.125 0.365238 0.35106105
v 0.3125 0.1793421 0.37553468
v 0.125 0.1793421 0.37553468
# 24 vertices

vn 1 0 0
vn 1 0 0
vn 1 0 0
vn 1 0 0
vn -1 0 0
vn -1 0 0
vn -1 0 0
vn -1 0 0
vn 0 0.9914449 -0.13052619
vn 0 0.9914449 -0.13052619
vn 0 0.9914449 -0.13052619
vn 0 0.9914449 -0.13052619
vn 0 -0.9914449 0.13052619
vn 0 -0.9914449 0.13052619
vn 0 -0.9914449 0.13052619
vn 0 -0.9914449 0.13052619
vn 0 0.13052619 0.9914449
vn 0 0.13052619 0.9914449
vn 0 0.13052619 0.9914449
vn 0 0.13052619 0.9914449
vn 0 -0.13052619 -0.9914449
vn 0 -0.13052619 -0.9914449
vn 0 -0.13052619 -0.9914449
vn 0 -0.13052619 -0.9914449
# 24 vertex normals

vt 0.75 -0.0625 0
vt 0.84375 -0.0625 0
vt 0.75 -0.109375 0
vt 0.84375 -0.109375 0
vt 0.75 -0.0625 0
vt 0.84375 -0.0625 0
vt 0.75 -0.109375 0
vt 0.84375 -0.109375 0
vt 0.46875 -0.84375 0
vt 0.421875 -0.84375 0
vt 0.46875 -0.75 0
vt 0.421875 -0.75 0
vt 0.46875 -0.75 0
vt 0.421875 -0.75 0
vt 0.46875 -0.84375 0
vt 0.421875 -0.84375 0
vt 0.171875 -0.765625 0
vt 0.21875 -0.765625 0
vt 0.171875 -0.8125 0
vt 0.21875 -0.8125 0
vt 0.125 -0.765625 0
vt 0.171875 -0.765625 0
vt 0.125 -0.8125 0
vt 0.171875 -0.8125 0
# 24 texture coords

usemtl mat_66296373
s 1024
f 241/241/241 243/243/243 242/242/242
f 243/243/243 244/244/244 242/242/242
f 245/245/245 247/247/247 246/246/246
f 247/247/247 248/248/248 246/246/246
f 249/249/249 251/251/251 250/250/250
f 251/251/251 252/252/252 250/250/250
f 253/253/253 255/255/255 254/254/254
f 255/255/255 256/256/256 254/254/254
f 257/257/257 259/259/259 258/258/258
f 259/259/259 260/260/260 258/258/258
f 261/261/261 263/263/263 262/262/262
f 263/263/263 264/264/264 262/262/262
#12 polygons

g head

#
# object head
#

v 0.25 1.5 0.25
v 0.25 1.5 -0.25
v 0.25 1 0.25
v 0.25 1 -0.25
v -0.25 1.5 -0.25
v -0.25 1.5 0.25
v -0.25 1 -0.25
v -0.25 1 0.25
v -0.25 1.5 -0.25
v 0.25 1.5 -0.25
v -0.25 1.5 0.25
v 0.25 1.5 0.25
v -0.25 1 0.25
v 0.25 1 0.25
v -0.25 1 -0.25
v 0.25 1 -0.25
v -0.25 1.5 0.25
v 0.25 1.5 0.25
v -0.25 1 0.25
v 0.25 1 0.25
v 0.25 1.5 -0.25
v -0.25 1.5 -0.25
v 0.25 1 -0.25
v -0.25 1 -0.25
# 24 vertices

vn 1 0 0
vn 1 0 0
vn 1 0 0
vn 1 0 0
vn -1 0 0
vn -1 0 0
vn -1 0 0
vn -1 0 0
vn 0 1 0
vn 0 1 0
vn 0 1 0
vn 0 1 0
vn 0 -1 0
vn 0 -1 0
vn 0 -1 0
vn 0 -1 0
vn 0 0 1
vn 0 0 1
vn 0 0 1
vn 0 0 1
vn 0 0 -1
vn 0 0 -1
vn 0 0 -1
vn 0 0 -1
# 24 vertex normals

vt 0.25 -0.40625 0
vt 0.375 -0.40625 0
vt 0.25 -0.53125 0
vt 0.375 -0.53125 0
vt 0.4375 -0.125 0
vt 0.5625 -0.125 0
vt 0.4375 -0.25 0
vt 0.5625 -0.25 0
vt 0.125 -0.578125 0
vt 0 -0.578125 0
vt 0.125 -0.453125 0
vt 0 -0.453125 0
vt 0.25 -0.453125 0
vt 0.125 -0.453125 0
vt 0.25 -0.578125 0
vt 0.125 -0.578125 0
vt 0.4375 -0 0
vt 0.5625 -0 0
vt 0.4375 -0.125 0
vt 0.5625 -0.125 0
vt 0.375 -0.390625 0
vt 0.5 -0.390625 0
vt 0.375 -0.515625 0
vt 0.5 -0.515625 0
# 24 texture coords

usemtl mat_52270425
s 2048
f 265/265/265 267/267/267 266/266/266
f 267/267/267 268/268/268 266/266/266
f 269/269/269 271/271/271 270/270/270
f 271/271/271 272/272/272 270/270/270
f 273/273/273 275/275/275 274/274/274
f 275/275/275 276/276/276 274/274/274
f 277/277/277 279/279/279 278/278/278
f 279/279/279 280/280/280 278/278/278
f 281/281/281 283/283/283 282/282/282
f 283/283/283 284/284/284 282/282/282
f 285/285/285 287/287/287 286/286/286
f 287/287/287 288/288/288 286/286/286
#12 polygons

g body

#
# object body
#

v 0.25 1.021706 0.123100966
v 0.25 0.97829396 -0.123100966
v 0.25 0.28310022 0.25333712
v 0.25 0.23968816 0.007135164
v -0.25 0.97829396 -0.123100966
v -0.25 1.021706 0.123100966
v -0.25 0.23968816 0.007135164
v -0.25 0.28310022 0.25333712
v -0.25 0.97829396 -0.123100966
v 0.25 0.97829396 -0.123100966
v -0.25 1.021706 0.123100966
v 0.25 1.021706 0.123100966
v -0.25 0.28310022 0.25333712
v 0.25 0.28310022 0.25333712
v -0.25 0.23968816 0.007135164
v 0.25 0.23968816 0.007135164
v -0.25 1.021706 0.123100966
v 0.25 1.021706 0.123100966
v -0.25 0.28310022 0.25333712
v 0.25 0.28310022 0.25333712
v 0.25 0.97829396 -0.123100966
v -0.25 0.97829396 -0.123100966
v 0.25 0.23968816 0.007135164
v -0.25 0.23968816 0.007135164
# 24 vertices

vn 1 0 0
vn 1 0 0
vn 1 0 0
vn 1 0 0
vn -1 0 0
vn -1 0 0
vn -1 0 0
vn -1 0 0
vn 0 0.9848077 -0.17364818
vn 0 0.9848077 -0.17364818
vn 0 0.9848077 -0.17364818
vn 0 0.9848077 -0.17364818
vn 0 -0.9848077 0.17364818
vn 0 -0.9848077 0.17364818
vn 0 -0.9848077 0.17364818
vn 0 -0.9848077 0.17364818
vn 0 0.17364818 0.9848077
vn 0 0.17364818 0.9848077
vn 0 0.17364818 0.9848077
vn 0 0.17364818 0.9848077
vn 0 -0.17364818 -0.9848077
vn 0 -0.17364818 -0.9848077
vn 0 -0.17364818 -0.9848077
vn 0 -0.17364818 -0.9848077
# 24 vertex normals

vt 0.5 -0.25 0
vt 0.5625 -0.25 0
vt 0.5 -0.4375 0
vt 0.5625 -0.4375 0
vt 0.5 -0.4375 0
vt 0.5625 -0.4375 0
vt 0.5 -0.625 0
vt 0.5625 -0.625 0
vt 0.5 -0.65625 0
vt 0.375 -0.65625 0
vt 0.5 -0.59375 0
vt 0.375 -0.59375 0
vt 0.78125 -0 0
vt 0.65625 -0 0
vt 0.78125 -0.0625 0
vt 0.65625 -0.0625 0
vt 0.125 -0.265625 0
vt 0.25 -0.265625 0
vt 0.125 -0.453125 0
vt 0.25 -0.453125 0
vt 0 -0.265625 0
vt 0.125 -0.265625 0
vt 0 -0.453125 0
vt 0.125 -0.453125 0
# 24 texture coords

usemtl mat_15401252
s 4096
f 289/289/289 291/291/291 290/290/290
f 291/291/291 292/292/292 290/290/290
f 293/293/293 295/295/295 294/294/294
f 295/295/295 296/296/296 294/294/294
f 297/297/297 299/299/299 298/298/298
f 299/299/299 300/300/300 298/298/298
f 301/301/301 303/303/303 302/302/302
f 303/303/303 304/304/304 302/302/302
f 305/305/305 307/307/307 306/306/306
f 307/307/307 308/308/308 306/306/306
f 309/309/309 311/311/311 310/310/310
f 311/311/311 312/312/312 310/310/310
#12 polygons

g leg1

#
# object leg1
#

v 0.23533542 0.42683762 0.22459452
v 0.23533542 0.53249216 -0.0019824281
v 0.58179027 0.29677674 0.16394614
v 0.58179027 0.4024313 -0.0626308
v 0.13966458 0.32316238 -0.09959452
v 0.13966458 0.21750781 0.12698242
v 0.4861194 0.19310151 -0.1602429
v 0.4861194 0.08744695 0.066334054
v 0.13966458 0.32316238 -0.09959452
v 0.23533542 0.53249216 -0.0019824281
v 0.13966458 0.21750781 0.12698242
v 0.23533542 0.42683762 0.22459452
v 0.4861194 0.08744695 0.066334054
v 0.58179027 0.29677674 0.16394614
v 0.4861194 0.19310151 -0.1602429
v 0.58179027 0.4024313 -0.0626308
v 0.13966458 0.21750781 0.12698242
v 0.23533542 0.42683762 0.22459452
v 0.4861194 0.08744695 0.066334054
v 0.58179027 0.29677674 0.16394614
v 0.23533542 0.53249216 -0.0019824281
v 0.13966458 0.32316238 -0.09959452
v 0.58179027 0.4024313 -0.0626308
v 0.4861194 0.19310151 -0.1602429
# 24 vertices

vn 0.38268343 0.8373192 0.39044836
vn 0.38268343 0.8373192 0.39044836
vn 0.38268343 0.8373192 0.39044836
vn 0.38268343 0.8373192 0.39044836
vn -0.38268343 -0.8373192 -0.39044836
vn -0.38268343 -0.8373192 -0.39044836
vn -0.38268343 -0.8373192 -0.39044836
vn -0.38268343 -0.8373192 -0.39044836
vn -0.9238795 0.34682897 0.16172901
vn -0.9238795 0.34682897 0.16172901
vn -0.9238795 0.34682897 0.16172901
vn -0.9238795 0.34682897 0.16172901
vn 0.9238795 -0.34682897 -0.16172901
vn 0.9238795 -0.34682897 -0.16172901
vn 0.9238795 -0.34682897 -0.16172901
vn 0.9238795 -0.34682897 -0.16172901
vn -3.8857806E-16 -0.42261827 0.9063078
vn -3.8857806E-16 -0.42261827 0.9063078
vn -3.8857806E-16 -0.42261827 0.9063078
vn -3.8857806E-16 -0.42261827 0.9063078
vn 3.8857806E-16 0.42261827 -0.9063078
vn 3.8857806E-16 0.42261827 -0.9063078
vn 3.8857806E-16 0.42261827 -0.9063078
vn 3.8857806E-16 0.42261827 -0.9063078
# 24 vertex normals

vt 0.65625 -0.453125 0
vt 0.71875 -0.453125 0
vt 0.65625 -0.546875 0
vt 0.71875 -0.546875 0
vt 0.65625 -0.546875 0
vt 0.71875 -0.546875 0
vt 0.65625 -0.640625 0
vt 0.71875 -0.640625 0
vt 0.609375 -0.8125 0
vt 0.546875 -0.8125 0
vt 0.609375 -0.75 0
vt 0.546875 -0.75 0
vt 0.8125 -0.6875 0
vt 0.75 -0.6875 0
vt 0.8125 -0.75 0
vt 0.75 -0.75 0
vt 0.546875 -0.65625 0
vt 0.609375 -0.65625 0
vt 0.546875 -0.75 0
vt 0.609375 -0.75 0
vt 0.65625 -0.359375 0
vt 0.71875 -0.359375 0
vt 0.65625 -0.453125 0
vt 0.71875 -0.453125 0
# 24 texture coords

usemtl mat_26326438
s 8192
f 313/313/313 315/315/315 314/314/314
f 315/315/315 316/316/316 314/314/314
f 317/317/317 319/319/319 318/318/318
f 319/319/319 320/320/320 318/318/318
f 321/321/321 323/323/323 322/322/322
f 323/323/323 324/324/324 322/322/322
f 325/325/325 327/327/327 326/326/326
f 327/327/327 328/328/328 326/326/326
f 329/329/329 331/331/331 330/330/330
f 331/331/331 332/332/332 330/330/330
f 333/333/333 335/335/335 334/334/334
f 335/335/335 336/336/336 334/334/334
#12 polygons

g leg2

#
# object leg2
#

v -0.13966458 0.21750781 0.18948242
v -0.13966458 0.32316238 -0.03709452
v -0.4861194 0.08744695 0.12883405
v -0.4861194 0.19310151 -0.09774289
v -0.23533542 0.53249216 0.060517572
v -0.23533542 0.42683762 0.28709453
v -0.58179027 0.4024313 -0.00013080574
v -0.58179027 0.29677674 0.22644614
v -0.23533542 0.53249216 0.060517572
v -0.13966458 0.32316238 -0.03709452
v -0.23533542 0.42683762 0.28709453
v -0.13966458 0.21750781 0.18948242
v -0.58179027 0.29677674 0.22644614
v -0.4861194 0.08744695 0.12883405
v -0.58179027 0.4024313 -0.00013080574
v -0.4861194 0.19310151 -0.09774289
v -0.23533542 0.42683762 0.28709453
v -0.13966458 0.21750781 0.18948242
v -0.58179027 0.29677674 0.22644614
v -0.4861194 0.08744695 0.12883405
v -0.13966458 0.32316238 -0.03709452
v -0.23533542 0.53249216 0.060517572
v -0.4861194 0.19310151 -0.09774289
v -0.58179027 0.4024313 -0.00013080574
# 24 vertices

vn 0.38268343 -0.8373192 -0.39044836
vn 0.38268343 -0.8373192 -0.39044836
vn 0.38268343 -0.8373192 -0.39044836
vn 0.38268343 -0.8373192 -0.39044836
vn -0.38268343 0.8373192 0.39044836
vn -0.38268343 0.8373192 0.39044836
vn -0.38268343 0.8373192 0.39044836
vn -0.38268343 0.8373192 0.39044836
vn 0.9238795 0.34682897 0.16172901
vn 0.9238795 0.34682897 0.16172901
vn 0.9238795 0.34682897 0.16172901
vn 0.9238795 0.34682897 0.16172901
vn -0.9238795 -0.34682897 -0.16172901
vn -0.9238795 -0.34682897 -0.16172901
vn -0.9238795 -0.34682897 -0.16172901
vn -0.9238795 -0.34682897 -0.16172901
vn 8.326673E-17 -0.42261827 0.9063078
vn 8.326673E-17 -0.42261827 0.9063078
vn 8.326673E-17 -0.42261827 0.9063078
vn 8.326673E-17 -0.42261827 0.9063078
vn -8.326673E-17 0.42261827 -0.9063078
vn -8.326673E-17 0.42261827 -0.9063078
vn -8.326673E-17 0.42261827 -0.9063078
vn -8.326673E-17 0.42261827 -0.9063078
# 24 vertex normals

vt 0.65625 -0.453125 0
vt 0.71875 -0.453125 0
vt 0.65625 -0.546875 0
vt 0.71875 -0.546875 0
vt 0.65625 -0.546875 0
vt 0.71875 -0.546875 0
vt 0.65625 -0.640625 0
vt 0.71875 -0.640625 0
vt 0.609375 -0.8125 0
vt 0.546875 -0.8125 0
vt 0.609375 -0.75 0
vt 0.546875 -0.75 0
vt 0.8125 -0.6875 0
vt 0.75 -0.6875 0
vt 0.8125 -0.75 0
vt 0.75 -0.75 0
vt 0.546875 -0.65625 0
vt 0.609375 -0.65625 0
vt 0.546875 -0.75 0
vt 0.609375 -0.75 0
vt 0.65625 -0.359375 0
vt 0.71875 -0.359375 0
vt 0.65625 -0.453125 0
vt 0.71875 -0.453125 0
# 24 texture coords

usemtl mat_27060464
s 16384
f 337/337/337 339/339/339 338/338/338
f 339/339/339 340/340/340 338/338/338
f 341/341/341 343/343/343 342/342/342
f 343/343/343 344/344/344 342/342/342
f 345/345/345 347/347/347 346/346/346
f 347/347/347 348/348/348 346/346/346
f 349/349/349 351/351/351 350/350/350
f 351/351/351 352/352/352 350/350/350
f 353/353/353 355/355/355 354/354/354
f 355/355/355 356/356/356 354/354/354
f 357/357/357 359/359/359 358/358/358
f 359/359/359 360/360/360 358/358/358
#12 polygons

g leg3

#
# object leg3
#

v 0.24988103 0.27915007 -0.14292088
v 0.24988103 0.4774884 0.009269481
v 0.23352376 0.5072183 -0.44014522
v 0.23352376 0.70555663 -0.28795487
v 0.000118972304 0.47084993 0.017920878
v 0.000118972304 0.2725116 -0.13426948
v -0.016238298 0.6989182 -0.27930346
v -0.016238298 0.5005799 -0.43149382
v 0.000118972304 0.47084993 0.017920878
v 0.24988103 0.4774884 0.009269481
v 0.000118972304 0.2725116 -0.13426948
v 0.24988103 0.27915007 -0.14292088
v -0.016238298 0.5005799 -0.43149382
v 0.23352376 0.5072183 -0.44014522
v -0.016238298 0.6989182 -0.27930346
v 0.23352376 0.70555663 -0.28795487
v 0.000118972304 0.2725116 -0.13426948
v 0.24988103 0.27915007 -0.14292088
v -0.016238298 0.5005799 -0.43149382
v 0.23352376 0.5072183 -0.44014522
v 0.24988103 0.4774884 0.009269481
v 0.000118972304 0.47084993 0.017920878
v 0.23352376 0.70555663 -0.28795487
v -0.016238298 0.6989182 -0.27930346
# 24 vertices

vn 0.99904823 0.0265538 -0.034605585
vn 0.99904823 0.0265538 -0.034605585
vn 0.99904823 0.0265538 -0.034605585
vn 0.99904823 0.0265538 -0.034605585
vn -0.99904823 -0.0265538 0.034605585
vn -0.99904823 -0.0265538 0.034605585
vn -0.99904823 -0.0265538 0.034605585
vn -0.99904823 -0.0265538 0.034605585
vn 0.043619387 -0.608182 0.79259825
vn 0.043619387 -0.608182 0.79259825
vn 0.043619387 -0.608182 0.79259825
vn 0.043619387 -0.608182 0.79259825
vn -0.043619387 0.608182 -0.79259825
vn -0.043619387 0.608182 -0.79259825
vn -0.043619387 0.608182 -0.79259825
vn -0.043619387 0.608182 -0.79259825
vn -3.1225023E-17 -0.7933533 -0.6087614
vn -3.1225023E-17 -0.7933533 -0.6087614
vn -3.1225023E-17 -0.7933533 -0.6087614
vn -3.1225023E-17 -0.7933533 -0.6087614
vn 3.1225023E-17 0.7933533 0.6087614
vn 3.1225023E-17 0.7933533 0.6087614
vn 3.1225023E-17 0.7933533 0.6087614
vn 3.1225023E-17 0.7933533 0.6087614
# 24 vertex normals

vt 0.65625 -0.453125 0
vt 0.71875 -0.453125 0
vt 0.65625 -0.546875 0
vt 0.71875 -0.546875 0
vt 0.65625 -0.546875 0
vt 0.71875 -0.546875 0
vt 0.65625 -0.640625 0
vt 0.71875 -0.640625 0
vt 0.609375 -0.8125 0
vt 0.546875 -0.8125 0
vt 0.609375 -0.75 0
vt 0.546875 -0.75 0
vt 0.8125 -0.6875 0
vt 0.75 -0.6875 0
vt 0.8125 -0.75 0
vt 0.75 -0.75 0
vt 0.546875 -0.65625 0
vt 0.609375 -0.65625 0
vt 0.546875 -0.75 0
vt 0.609375 -0.75 0
vt 0.65625 -0.359375 0
vt 0.71875 -0.359375 0
vt 0.65625 -0.453125 0
vt 0.71875 -0.453125 0
# 24 texture coords

usemtl mat_58027794
s 32768
f 361/361/361 363/363/363 362/362/362
f 363/363/363 364/364/364 362/362/362
f 365/365/365 367/367/367 366/366/366
f 367/367/367 368/368/368 366/366/366
f 369/369/369 371/371/371 370/370/370
f 371/371/371 372/372/372 370/370/370
f 373/373/373 375/375/375 374/374/374
f 375/375/375 376/376/376 374/374/374
f 377/377/377 379/379/379 378/378/378
f 379/379/379 380/380/380 378/378/378
f 381/381/381 383/383/383 382/382/382
f 383/383/383 384/384/384 382/382/382
#12 polygons

g leg4

#
# object leg4
#

v -0.000118972304 0.2757397 -0.13867165
v -0.000118972304 0.4672508 0.02202525
v 0.016238298 0.5165556 -0.4256649
v 0.016238298 0.70806676 -0.264968
v -0.24988103 0.4742603 0.013671652
v -0.24988103 0.2827492 -0.14702524
v -0.23352376 0.7150762 -0.2733216
v -0.23352376 0.5235651 -0.4340185
v -0.24988103 0.4742603 0.013671652
v -0.000118972304 0.4672508 0.02202525
v -0.24988103 0.2827492 -0.14702524
v -0.000118972304 0.2757397 -0.13867165
v -0.23352376 0.5235651 -0.4340185
v 0.016238298 0.5165556 -0.4256649
v -0.23352376 0.7150762 -0.2733216
v 0.016238298 0.70806676 -0.264968
v -0.24988103 0.2827492 -0.14702524
v -0.000118972304 0.2757397 -0.13867165
v -0.23352376 0.5235651 -0.4340185
v 0.016238298 0.5165556 -0.4256649
v -0.000118972304 0.4672508 0.02202525
v -0.24988103 0.4742603 0.013671652
v 0.016238298 0.70806676 -0.264968
v -0.23352376 0.7150762 -0.2733216
# 24 vertices

vn 0.99904823 -0.028038003 0.03341439
vn 0.99904823 -0.028038003 0.03341439
vn 0.99904823 -0.028038003 0.03341439
vn 0.99904823 -0.028038003 0.03341439
vn -0.99904823 0.028038003 -0.03341439
vn -0.99904823 0.028038003 -0.03341439
vn -0.99904823 0.028038003 -0.03341439
vn -0.99904823 0.028038003 -0.03341439
vn -0.043619387 -0.6421758 0.76531535
vn -0.043619387 -0.6421758 0.76531535
vn -0.043619387 -0.6421758 0.76531535
vn -0.043619387 -0.6421758 0.76531535
vn 0.043619387 0.6421758 -0.76531535
vn 0.043619387 0.6421758 -0.76531535
vn 0.043619387 0.6421758 -0.76531535
vn 0.043619387 0.6421758 -0.76531535
vn 3.469447E-18 -0.76604444 -0.64278764
vn 3.469447E-18 -0.76604444 -0.64278764
vn 3.469447E-18 -0.76604444 -0.64278764
vn 3.469447E-18 -0.76604444 -0.64278764
vn -3.469447E-18 0.76604444 0.64278764
vn -3.469447E-18 0.76604444 0.64278764
vn -3.469447E-18 0.76604444 0.64278764
vn -3.469447E-18 0.76604444 0.64278764
# 24 vertex normals

vt 0.65625 -0.453125 0
vt 0.71875 -0.453125 0
vt 0.65625 -0.546875 0
vt 0.71875 -0.546875 0
vt 0.65625 -0.546875 0
vt 0.71875 -0.546875 0
vt 0.65625 -0.640625 0
vt 0.71875 -0.640625 0
vt 0.609375 -0.8125 0
vt 0.546875 -0.8125 0
vt 0.609375 -0.75 0
vt 0.546875 -0.75 0
vt 0.8125 -0.6875 0
vt 0.75 -0.6875 0
vt 0.8125 -0.75 0
vt 0.75 -0.75 0
vt 0.546875 -0.65625 0
vt 0.609375 -0.65625 0
vt 0.546875 -0.75 0
vt 0.609375 -0.75 0
vt 0.65625 -0.359375 0
vt 0.71875 -0.359375 0
vt 0.65625 -0.453125 0
vt 0.71875 -0.453125 0
# 24 texture coords

usemtl mat_23198235
s 65536
f 385/385/385 387/387/387 386/386/386
f 387/387/387 388/388/388 386/386/386
f 389/389/389 391/391/391 390/390/390
f 391/391/391 392/392/392 390/390/390
f 393/393/393 395/395/395 394/394/394
f 395/395/395 396/396/396 394/394/394
f 397/397/397 399/399/399 398/398/398
f 399/399/399 400/400/400 398/398/398
f 401/401/401 403/403/403 402/402/402
f 403/403/403 404/404/404 402/402/402
f 405/405/405 407/407/407 406/406/406
f 407/407/407 408/408/408 406/406/406
#12 polygons

